<svg xmlns="http://www.w3.org/2000/svg" xmlns:xlink="http://www.w3.org/1999/xlink" version="1.1" width="256" height="256" viewBox="0 0 256 256" xml:space="preserve">
<g style="stroke: none; stroke-width: 0; stroke-dasharray: none; stroke-linecap: butt; stroke-linejoin: miter; stroke-miterlimit: 10; fill: none; fill-rule: nonzero; opacity: 1;" transform="translate(1.4065934065934016 1.4065934065934016) scale(2.81 2.81)">
	<path d="M 74.188 89.5 H 15.812 c -1.435 0 -2.598 -1.163 -2.598 -2.598 V 3.098 c 0 -1.435 1.163 -2.598 2.598 -2.598 h 58.376 c 1.435 0 2.598 1.163 2.598 2.598 v 83.804 C 76.785 88.337 75.622 89.5 74.188 89.5 z" style="stroke: none; stroke-width: 1; stroke-dasharray: none; stroke-linecap: butt; stroke-linejoin: miter; stroke-miterlimit: 10; fill: rgb(255,255,255); fill-rule: evenodd; opacity: 1;" transform=" matrix(1 0 0 1 0 0) " stroke-linecap="round"/>
	<path d="M 74.187 90 H 15.812 c -1.708 0 -3.098 -1.39 -3.098 -3.098 V 3.098 C 12.714 1.39 14.104 0 15.812 0 h 58.375 c 1.709 0 3.099 1.39 3.099 3.098 v 83.805 C 77.286 88.61 75.896 90 74.187 90 z M 15.812 1 c -1.157 0 -2.098 0.941 -2.098 2.098 v 83.805 c 0 1.156 0.941 2.098 2.098 2.098 h 58.375 c 1.157 0 2.099 -0.941 2.099 -2.098 V 3.098 C 76.286 1.941 75.344 1 74.187 1 H 15.812 z" style="stroke: none; stroke-width: 1; stroke-dasharray: none; stroke-linecap: butt; stroke-linejoin: miter; stroke-miterlimit: 10; fill: rgb(0,0,0); fill-rule: nonzero; opacity: 1;" transform=" matrix(1 0 0 1 0 0) " stroke-linecap="round"/>
	<path d="M 70.394 85 H 19.606 c -0.951 0 -1.721 -0.771 -1.721 -1.721 V 6.721 C 17.884 5.771 18.655 5 19.606 5 h 50.789 c 0.951 0 1.721 0.771 1.721 1.721 v 76.557 C 72.116 84.229 71.345 85 70.394 85 z" style="stroke: none; stroke-width: 1; stroke-dasharray: none; stroke-linecap: butt; stroke-linejoin: miter; stroke-miterlimit: 10; fill: rgb(0,0,0); fill-rule: evenodd; opacity: 1;" transform=" matrix(1 0 0 1 0 0) " stroke-linecap="round"/>
	<path d="M 72.116 71.352 v -1.414 l -0.736 0.736 l -5.888 -5.888 l 5.888 -5.888 l 0.736 0.736 v -1.414 l -0.029 -0.029 l 0.029 -0.029 v -1.414 l -0.736 0.736 l -5.888 -5.888 l 5.888 -5.888 l 0.736 0.736 v -1.414 L 72.087 45 l 0.029 -0.029 v -1.414 l -0.736 0.736 l -5.888 -5.888 l 5.888 -5.888 l 0.736 0.736 v -1.414 l -0.029 -0.029 l 0.029 -0.029 v -1.414 l -0.736 0.736 l -5.888 -5.888 l 5.888 -5.888 l 0.735 0.735 v -1.414 l -0.028 -0.028 l 0.028 -0.028 v -1.414 l -0.735 0.735 l -5.888 -5.888 l 6.301 -6.301 c -0.198 -0.278 -0.477 -0.491 -0.802 -0.612 l -6.205 6.205 L 58.897 5.43 L 59.327 5 h -2.274 l 0.43 0.43 l -5.888 5.888 L 45.707 5.43 L 46.137 5 h -2.274 l 0.43 0.43 l -5.888 5.888 L 32.517 5.43 L 32.947 5 h -2.274 l 0.43 0.43 l -5.888 5.888 L 19.01 5.112 c -0.325 0.121 -0.604 0.334 -0.802 0.612 l 6.301 6.301 l -5.888 5.888 l -0.736 -0.736 v 1.414 l 0.029 0.029 l -0.029 0.029 v 1.414 l 0.736 -0.736 l 5.888 5.888 l -5.888 5.888 l -0.736 -0.736 v 1.414 l 0.029 0.029 l -0.029 0.029 v 1.414 l 0.736 -0.736 l 5.888 5.888 l -5.888 5.888 l -0.736 -0.736 v 1.414 L 17.913 45 l -0.029 0.029 v 1.414 l 0.736 -0.736 l 5.888 5.888 l -5.888 5.888 l -0.736 -0.736 v 1.414 l 0.029 0.029 l -0.029 0.029 v 1.414 l 0.736 -0.736 l 5.888 5.888 l -5.888 5.888 l -0.736 -0.736 v 1.414 l 0.029 0.029 l -0.029 0.029 v 1.414 l 0.736 -0.736 l 5.888 5.888 l -6.301 6.301 c 0.198 0.278 0.477 0.491 0.802 0.612 l 6.205 -6.205 l 5.888 5.888 L 30.673 85 h 2.274 l -0.43 -0.43 l 5.888 -5.888 l 5.888 5.888 L 43.863 85 h 2.275 l -0.43 -0.43 l 5.888 -5.888 l 5.888 5.888 L 57.053 85 h 2.274 l -0.43 -0.43 l 5.888 -5.888 l 6.205 6.205 c 0.325 -0.121 0.604 -0.334 0.802 -0.612 l -6.301 -6.301 l 5.888 -5.888 l 0.736 0.736 v -1.414 l -0.029 -0.029 L 72.116 71.352 z M 70.673 58.19 l -5.888 5.888 l -5.888 -5.888 l 5.888 -5.888 L 70.673 58.19 z M 44.293 45 l -5.888 5.888 L 32.517 45 l 5.888 -5.888 L 44.293 45 z M 39.112 38.405 L 45 32.517 l 5.888 5.888 L 45 44.293 L 39.112 38.405 z M 45 45.707 l 5.888 5.888 L 45 57.483 l -5.888 -5.888 L 45 45.707 z M 45.707 45 l 5.888 -5.888 L 57.483 45 l -5.888 5.888 L 45.707 45 z M 58.19 45.707 l 5.888 5.888 l -5.888 5.888 l -5.888 -5.888 L 58.19 45.707 z M 52.302 38.405 l 5.888 -5.888 l 5.888 5.888 l -5.888 5.888 L 52.302 38.405 z M 52.302 25.215 l 5.888 -5.888 l 5.888 5.888 l -5.888 5.888 L 52.302 25.215 z M 57.483 31.81 l -5.888 5.888 l -5.888 -5.888 l 5.888 -5.888 L 57.483 31.81 z M 45 31.103 l -5.888 -5.888 L 45 19.327 l 5.888 5.888 L 45 31.103 z M 44.293 31.81 l -5.888 5.888 l -5.888 -5.888 l 5.888 -5.888 L 44.293 31.81 z M 31.81 31.103 l -5.888 -5.888 l 5.888 -5.888 l 5.888 5.888 L 31.81 31.103 z M 37.698 38.405 l -5.888 5.888 l -5.888 -5.888 l 5.888 -5.888 L 37.698 38.405 z M 37.698 51.595 l -5.888 5.888 l -5.888 -5.888 l 5.888 -5.888 L 37.698 51.595 z M 37.698 64.785 l -5.888 5.888 l -5.888 -5.888 l 5.888 -5.888 L 37.698 64.785 z M 32.517 58.19 l 5.888 -5.888 l 5.888 5.888 l -5.888 5.888 L 32.517 58.19 z M 45 58.897 l 5.888 5.888 L 45 70.673 l -5.888 -5.888 L 45 58.897 z M 45.707 58.19 l 5.888 -5.888 l 5.888 5.888 l -5.888 5.888 L 45.707 58.19 z M 58.19 58.897 l 5.888 5.888 l -5.888 5.888 l -5.888 -5.888 L 58.19 58.897 z M 70.673 45 l -5.888 5.888 L 58.897 45 l 5.888 -5.888 L 70.673 45 z M 70.673 31.81 l -5.888 5.888 l -5.888 -5.888 l 5.888 -5.888 L 70.673 31.81 z M 70.673 18.62 l -5.888 5.888 l -5.888 -5.888 l 5.888 -5.888 L 70.673 18.62 z M 58.19 6.137 l 5.888 5.888 l -5.888 5.888 l -5.888 -5.888 L 58.19 6.137 z M 57.483 18.62 l -5.888 5.888 l -5.888 -5.888 l 5.888 -5.888 L 57.483 18.62 z M 45 6.137 l 5.888 5.888 L 45 17.913 l -5.888 -5.888 L 45 6.137 z M 44.293 18.62 l -5.888 5.888 l -5.888 -5.888 l 5.888 -5.888 L 44.293 18.62 z M 31.81 6.137 l 5.888 5.888 l -5.888 5.888 l -5.888 -5.888 L 31.81 6.137 z M 19.327 18.62 l 5.888 -5.888 l 5.888 5.888 l -5.888 5.888 L 19.327 18.62 z M 19.327 31.81 l 5.888 -5.888 l 5.888 5.888 l -5.888 5.888 L 19.327 31.81 z M 19.327 45 l 5.888 -5.888 L 31.103 45 l -5.888 5.888 L 19.327 45 z M 19.327 58.19 l 5.888 -5.888 l 5.888 5.888 l -5.888 5.888 L 19.327 58.19 z M 19.327 71.38 l 5.888 -5.888 l 5.888 5.888 l -5.888 5.888 L 19.327 71.38 z M 31.81 83.863 l -5.888 -5.888 l 5.888 -5.888 l 5.888 5.888 L 31.81 83.863 z M 32.517 71.38 l 5.888 -5.888 l 5.888 5.888 l -5.888 5.888 L 32.517 71.38 z M 45 83.863 l -5.888 -5.888 L 45 72.087 l 5.888 5.888 L 45 83.863 z M 45.707 71.38 l 5.888 -5.888 l 5.888 5.888 l -5.888 5.888 L 45.707 71.38 z M 58.19 83.863 l -5.888 -5.888 l 5.888 -5.888 l 5.888 5.888 L 58.19 83.863 z M 64.785 77.268 l -5.888 -5.888 l 5.888 -5.888 l 5.888 5.888 L 64.785 77.268 z" style="stroke: none; stroke-width: 1; stroke-dasharray: none; stroke-linecap: butt; stroke-linejoin: miter; stroke-miterlimit: 10; fill: rgb(255,255,255); fill-rule: evenodd; opacity: 1;" transform=" matrix(1 0 0 1 0 0) " stroke-linecap="round"/>
</g>
</svg>